<?xml version="1.0" encoding="utf-8"?>
<!-- Generator: Adobe Illustrator 16.0.0, SVG Export Plug-In . SVG Version: 6.00 Build 0)  -->
<!DOCTYPE svg PUBLIC "-//W3C//DTD SVG 1.1//EN" "http://www.w3.org/Graphics/SVG/1.1/DTD/svg11.dtd">
<svg version="1.1" id="Capa_1" xmlns="http://www.w3.org/2000/svg" xmlns:xlink="http://www.w3.org/1999/xlink" 
 viewBox="0 0 595.281 841.891" enable-background="new 0 0 595.281 841.891"
	 xml:space="preserve">
<g>
	<g>
		<path d="M471.33,544.901c-40.93,0-74.225,33.297-74.225,74.225c0,40.927,33.297,74.224,74.225,74.224
			c40.926,0,74.223-33.297,74.223-74.224C545.552,578.198,512.255,544.901,471.33,544.901z M471.33,648.815
			c-16.375,0-29.691-13.316-29.691-29.689c0-16.374,13.316-29.69,29.691-29.69c16.373,0,29.689,13.316,29.689,29.69
			C501.019,635.499,487.703,648.815,471.33,648.815z"/>
	</g>
</g>
<g>
	<g>
		<path d="M590.548,258.029c-4.217-5.396-10.682-8.544-17.531-8.544H137.45l-20.041-83.851
			c-2.397-10.021-11.357-17.094-21.659-17.094H22.268C9.969,148.54,0,158.509,0,170.806c0,12.299,9.969,22.268,22.268,22.268h55.906
			l72.369,302.808c2.397,10.028,11.357,17.094,21.659,17.094h346.631c10.234,0,19.156-6.978,21.613-16.908l54.186-218.964
			C596.271,270.454,594.763,263.425,590.548,258.029z"/>
	</g>
</g>
<g>
	<g>
		<path d="M201.892,544.901c-40.928,0-74.225,33.297-74.225,74.225c0,40.927,33.297,74.224,74.225,74.224
			c40.927,0,74.224-33.297,74.224-74.224C276.116,578.198,242.819,544.901,201.892,544.901z M201.892,648.815
			c-16.374,0-29.69-13.316-29.69-29.689c0-16.374,13.316-29.69,29.69-29.69c16.374,0,29.689,13.316,29.689,29.69
			C231.582,635.499,218.266,648.815,201.892,648.815z"/>
	</g>
</g>
<polygon fill="#FFFFFF" points="501.412,468.442 189.778,468.442 148.093,294.02 544.564,294.02 "/>
</svg>
